<?xml version="1.0" encoding="utf-8"?>
<!-- Generator: Adobe Illustrator 27.1.0, SVG Export Plug-In . SVG Version: 6.00 Build 0)  -->
<svg version="1.1" id="Capa_1" xmlns="http://www.w3.org/2000/svg" xmlns:xlink="http://www.w3.org/1999/xlink" x="0px" y="0px"
	 viewBox="0 0 50 50" style="enable-background:new 0 0 50 50;" xml:space="preserve">
<style type="text/css">
	.st0{fill:#53A5B1;}
	.st1{fill:#E3057D;}
	.st2{fill:#FFFFFF;}
</style>
<g id="Capa_2-2">
	<g id="Capa_1-2">
		<path class="st0" d="M0.3,42c-0.1,0-0.1,0-0.2-0.1s-0.1-0.2,0-0.4l24.5-26.9c0,0,0.1-0.1,0.2-0.1c0.1,0,0.1,0,0.2,0.1l3.9,6.8
			L49.5,8.1c0.1-0.1,0.2,0,0.4,0c0.1,0.1,0.1,0.2,0,0.4L25.5,36.6c0,0-0.1,0.1-0.2,0.1c-0.1,0-0.1,0-0.2-0.1l-4-6.5L0.3,42L0.3,42
			L0.3,42L0.3,42z M24.8,15.3l-23,25.3L21,29.5c0.1,0,0.2,0,0.4,0.1l3.9,6.5L48,9.8L29,22.3c0,0-0.1,0-0.2,0c0,0-0.1,0-0.1-0.1
			L24.8,15.3L24.8,15.3L24.8,15.3z"/>
		<g>
			<path class="st1" d="M25.1,40.7h-1.5c-0.1,0-0.2-0.1-0.2-0.2v-3.6c0-0.1,0.1-0.2,0.2-0.2h3.5v-1h-2c-0.1,0-0.2-0.1-0.2-0.2v-2
				c0-0.1,0.1-0.2,0.2-0.2h2.6v-0.9h-3.9v3.5c0,0.1-0.1,0.2-0.2,0.2c-0.1,0-0.2-0.1-0.2-0.2V32c0-0.1,0.1-0.2,0.2-0.2h4.5
				c0.1,0,0.2,0.1,0.2,0.2v1.4c0,0.1-0.1,0.2-0.2,0.2h-2.6V35h2c0.1,0,0.2,0.1,0.2,0.2v1.5c0,0.1-0.1,0.2-0.2,0.2H24v3.2h0.9V38
				c0-0.1,0.1-0.2,0.2-0.2c0.1,0,0.2,0.1,0.2,0.2v2.5C25.4,40.6,25.2,40.7,25.1,40.7L25.1,40.7L25.1,40.7z"/>
			<path class="st1" d="M34.6,40.7h-3.5c-0.1,0-0.2-0.1-0.2-0.2v-8.2h-1v8.2c0,0.1-0.1,0.2-0.2,0.2c-0.1,0-0.2-0.1-0.2-0.2V32
				c0-0.1,0.1-0.2,0.2-0.2h1.5c0.1,0,0.2,0.1,0.2,0.2v8.2h2.9v-0.9h-2.1c-0.1,0-0.2-0.1-0.2-0.2c0-0.1,0.1-0.2,0.2-0.2h2.4
				c0.1,0,0.2,0.1,0.2,0.2v1.5C35,40.6,34.8,40.7,34.6,40.7L34.6,40.7z"/>
			<path class="st1" d="M40.7,40.7h-4.5c-0.1,0-0.2-0.1-0.2-0.2V38c0-0.1,0.1-0.2,0.2-0.2c0.1,0,0.2,0.1,0.2,0.2v2.2h4v-1.1H38
				c-0.1,0-0.2-0.1-0.2-0.2v-1.6h-1.4c-0.1,0-0.2-0.1-0.2-0.2v-5c0-0.1,0.1-0.2,0.2-0.2h4.5c0.1,0,0.2,0.1,0.2,0.2v1.5
				c0,0.1-0.1,0.2-0.2,0.2H38V35h2c0.1,0,0.2,0.1,0.2,0.2v1.5c0,0.1-0.1,0.2-0.2,0.2h-1.1c-0.1,0-0.2-0.1-0.2-0.2
				c0-0.1,0.1-0.2,0.2-0.2h0.9v-1h-2c-0.1,0-0.2-0.1-0.2-0.2v-1.7c0-0.1,0.1-0.2,0.2-0.2h2.7v-0.9h-4v4.5h1.4c0.1,0,0.2,0.1,0.2,0.2
				v1.6h2.5c0.1,0,0.2,0.1,0.2,0.2v1.6C40.9,40.6,40.8,40.7,40.7,40.7L40.7,40.7L40.7,40.7z"/>
			<path class="st1" d="M48.2,40.7h-1.5c-0.1,0-0.2,0-0.2-0.1L44.6,37l-1.9,3.2h1l0.6-1.2c0-0.1,0.2-0.2,0.4-0.1
				c0.1,0,0.2,0.2,0.1,0.4l-0.7,1.5c0,0.1-0.1,0.1-0.2,0.1h-1.6c-0.1,0-0.2,0-0.2-0.1s0-0.2,0-0.2l2.2-4.1c0-0.1,0.1-0.1,0.2-0.1
				c0.1,0,0.2,0,0.2,0.1l2.1,4h0.9l-1.9-3.9c0,0,0-0.1,0-0.2l1.9-3.9h-1l-1.2,2.5c0,0.1-0.1,0.1-0.2,0.1l0,0c-0.1,0-0.2,0-0.2-0.1
				l-1.2-2.5h-1l1.4,2.5c0,0.1,0,0.2-0.1,0.4c-0.1,0.1-0.2,0-0.4-0.1l-1.6-3c0-0.1,0-0.2,0-0.2c0-0.1,0.1-0.1,0.2-0.1h1.6
				c0.1,0,0.2,0,0.2,0.1l1.1,2.1l1.1-2.1c0-0.1,0.1-0.1,0.2-0.1h1.6c0.1,0,0.1,0,0.2,0.1c0,0.1,0,0.1,0,0.2l-2,4.1l2,4.1
				c0,0.1,0,0.2,0,0.2C48.3,40.7,48.3,40.7,48.2,40.7L48.2,40.7L48.2,40.7z"/>
		</g>
		<g>
			<path class="st2" d="M28.1,31c-1.5,0-2.9-0.6-4-1.6c-1.1-1-1.6-2.5-1.6-4c0-1.5,0.6-2.9,1.6-4c1.1-1.1,2.5-1.6,4-1.6
				c1.5,0,2.9,0.6,4,1.6c1.1,1,1.6,2.5,1.6,4c0,1.5-0.6,2.9-1.6,4C31,30.5,29.6,31,28.1,31z M28.1,20.3c-2.7,0-5.1,2.2-5.1,5.1
				s2.2,5.1,5.1,5.1s5.1-2.2,5.1-5.1S30.9,20.3,28.1,20.3L28.1,20.3z"/>
			<path class="st2" d="M28.1,30.1c-0.5,0-1,0-1.4-0.2c-1.2-0.4-2.2-1.2-2.7-2.4c-0.2-0.6-0.5-1.2-0.5-1.9c0-0.1,0.1-0.2,0.2-0.2
				c0.1,0,0.2,0.1,0.2,0.2c0,0.6,0.2,1.1,0.5,1.7c0.7,1.4,2.2,2.2,3.7,2.2c0.6,0,1.2-0.1,1.9-0.5c1-0.5,1.7-1.4,2.1-2.5
				c0.4-1.1,0.2-2.2-0.2-3.2c-0.2-0.4-0.5-0.7-0.7-1c-0.1-0.1-0.1-0.2,0-0.4c0.1-0.1,0.2-0.1,0.4,0c0.4,0.4,0.6,0.7,0.9,1.1
				c0.6,1.1,0.7,2.4,0.2,3.6c-0.4,1.2-1.2,2.2-2.4,2.7C29.6,30,28.9,30.1,28.1,30.1L28.1,30.1L28.1,30.1z"/>
			<g>
				<path class="st2" d="M3,30.9c-0.1,0-0.2-0.1-0.2-0.2V20.4c0-0.1,0.1-0.2,0.2-0.2s0.2,0,0.2,0.1l7,9.3v-9.1
					c0-0.1,0.1-0.2,0.2-0.2c0.1,0,0.2,0.1,0.2,0.2v10c0,0.1-0.1,0.2-0.2,0.2c-0.1,0-0.2,0-0.2-0.1l-7-9.3v9.3
					C3.3,30.8,3.2,30.9,3,30.9L3,30.9z"/>
				<path class="st2" d="M4,30.9c-0.1,0-0.2-0.1-0.2-0.2V20.3C3.7,20.2,3.8,20,4,20s0.2,0.1,0.2,0.2v10.5C4.2,30.8,4.1,30.9,4,30.9z
					"/>
			</g>
			<g>
				<path class="st2" d="M20.5,25.5h-7.2c-0.1,0-0.2-0.1-0.2-0.2v-5c0-0.1,0.1-0.2,0.2-0.2c0.1,0,0.2,0.1,0.2,0.2V25h7
					c0.1,0,0.2,0.1,0.2,0.2C20.9,25.4,20.8,25.5,20.5,25.5z"/>
				<path class="st2" d="M14.3,25.5c-0.1,0-0.2-0.1-0.2-0.2v-5c0-0.1,0.1-0.2,0.2-0.2h6.2c0.1,0,0.2,0.1,0.2,0.2
					c0,0.1-0.1,0.2-0.2,0.2h-6v4.7C14.7,25.4,14.5,25.5,14.3,25.5z"/>
			</g>
			<g>
				<path class="st2" d="M13.4,31c-0.1,0-0.2-0.1-0.2-0.2V26c0-0.1,0.1-0.2,0.2-0.2h7.2c0.1,0,0.2,0.1,0.2,0.2s-0.1,0.2-0.2,0.2h-7
					v4.5C13.7,30.9,13.5,31,13.4,31L13.4,31z"/>
				<path class="st2" d="M20.5,31h-6.2c-0.1,0-0.2-0.1-0.2-0.2V26c0-0.1,0.1-0.2,0.2-0.2c0.1,0,0.2,0.1,0.2,0.2v4.5h6
					c0.1,0,0.2,0.1,0.2,0.2C20.8,30.9,20.8,31,20.5,31L20.5,31z"/>
			</g>
			<g>
				<path class="st2" d="M35.2,31c-0.1,0-0.2-0.1-0.2-0.2V20.5c0-0.1,0-0.2,0.2-0.2c0.1,0,0.2,0,0.2,0.1l7,9.3v-9.1
					c0-0.1,0.1-0.2,0.2-0.2c0.1,0,0.2-0.1,0.2,0.1v10c0,0.1,0,0.2-0.2,0.2c-0.1,0-0.2,0-0.2-0.1l-7-9.3v9.3
					C35.5,30.9,35.3,31,35.2,31L35.2,31z"/>
				<path class="st2" d="M36.1,31c-0.1,0-0.2-0.1-0.2-0.2V20.3c0-0.1,0.1-0.2,0.2-0.2c0.1,0,0.2,0.1,0.2,0.2v10.3
					C36.5,30.9,36.3,31,36.1,31z"/>
			</g>
		</g>
	</g>
</g>
</svg>
